<svg width="40" height="40" viewBox="0 0 40 40" fill="none" xmlns="http://www.w3.org/2000/svg">
<path d="M22.1125 28.5717C21.7875 28.2467 21.6315 27.854 21.6445 27.3936C21.6586 26.9331 21.8281 26.5404 22.1531 26.2154L26.7437 21.6248H8.625C8.16458 21.6248 7.77838 21.4688 7.46638 21.1568C7.15546 20.8459 7 20.4602 7 19.9998C7 19.5394 7.15546 19.1532 7.46638 18.8412C7.77838 18.5303 8.16458 18.3748 8.625 18.3748H26.7437L22.1125 13.7436C21.7875 13.4186 21.625 13.0323 21.625 12.5849C21.625 12.1386 21.7875 11.7529 22.1125 11.4279C22.4375 11.1029 22.8237 10.9404 23.2711 10.9404C23.7175 10.9404 24.1031 11.1029 24.4281 11.4279L31.8625 18.8623C32.025 19.0248 32.1404 19.2008 32.2086 19.3904C32.2758 19.58 32.3094 19.7831 32.3094 19.9998C32.3094 20.2165 32.2758 20.4196 32.2086 20.6092C32.1404 20.7988 32.025 20.9748 31.8625 21.1373L24.3875 28.6123C24.0896 28.9102 23.7175 29.0592 23.2711 29.0592C22.8237 29.0592 22.4375 28.8967 22.1125 28.5717Z" fill="white"/>
</svg>
