<svg width="60" height="60" viewBox="0 0 60 60" fill="none" xmlns="http://www.w3.org/2000/svg">
<path d="M46.3265 13.6738H13.6734C11.4285 13.6738 9.61221 15.5106 9.61221 17.7555L9.5918 42.2453C9.5918 44.4902 11.4285 46.3269 13.6734 46.3269H46.3265C48.5714 46.3269 50.4081 44.4902 50.4081 42.2453V17.7555C50.4081 15.5106 48.5714 13.6738 46.3265 13.6738ZM45.5102 22.3473L31.0816 31.3677C30.4285 31.7759 29.5714 31.7759 28.9183 31.3677L14.4898 22.3473C14.2851 22.2324 14.1059 22.0772 13.963 21.8911C13.8201 21.7049 13.7164 21.4917 13.6583 21.2644C13.6001 21.037 13.5887 20.8002 13.6248 20.5683C13.6608 20.3364 13.7435 20.1143 13.8679 19.9153C13.9923 19.7163 14.1557 19.5446 14.3484 19.4106C14.541 19.2766 14.7589 19.183 14.9887 19.1357C15.2186 19.0883 15.4556 19.088 15.6856 19.1349C15.9155 19.1818 16.1336 19.2749 16.3265 19.4085L30 27.9595L43.6734 19.4085C43.8664 19.2749 44.0844 19.1818 44.3143 19.1349C44.5443 19.088 44.7813 19.0883 45.0112 19.1357C45.241 19.183 45.4589 19.2766 45.6515 19.4106C45.8442 19.5446 46.0077 19.7163 46.132 19.9153C46.2564 20.1143 46.3391 20.3364 46.3752 20.5683C46.4112 20.8002 46.3998 21.037 46.3416 21.2644C46.2835 21.4917 46.1798 21.7049 46.0369 21.8911C45.894 22.0772 45.7148 22.2324 45.5102 22.3473Z" fill="white"/>
</svg>
