<svg width="60" height="60" viewBox="0 0 60 60" fill="none" xmlns="http://www.w3.org/2000/svg">
<path d="M47.7922 10H12.2078C10.9883 10 10 10.9883 10 12.2078V47.7928C10 49.0117 10.9883 50 12.2078 50H31.365V34.51H26.1522V28.4733H31.365V24.0211C31.365 18.8544 34.5206 16.0417 39.1294 16.0417C41.3372 16.0417 43.2344 16.2056 43.7878 16.2794V21.6789L40.5911 21.6806C38.0844 21.6806 37.5994 22.8717 37.5994 24.6194V28.4739H43.5772L42.7989 34.5106H37.5994V50H47.7928C49.0117 50 50 49.0117 50 47.7922V12.2078C50 10.9883 49.0117 10 47.7922 10V10Z" fill="white"/>
</svg>
