<svg width="60" height="60" viewBox="0 0 60 60" fill="none" xmlns="http://www.w3.org/2000/svg">
<path d="M47.0372 10H12.9528C11.3228 10 10 11.2917 10 12.8822V47.1139C10 48.7067 11.3228 50 12.9528 50H47.0372C48.6683 50 50 48.7067 50 47.1139V12.8822C50 11.2917 48.6683 10 47.0372 10ZM21.8633 44.0856H15.9278V24.9972H21.8633V44.0856ZM18.8956 22.3872C16.9939 22.3872 15.4567 20.8461 15.4567 18.9461C15.4567 17.0489 16.9939 15.5078 18.8956 15.5078C20.7928 15.5078 22.3339 17.0489 22.3339 18.9461C22.3339 20.8461 20.7928 22.3872 18.8956 22.3872ZM44.0833 44.0856H38.1572V34.8033C38.1572 32.5889 38.1139 29.7417 35.0733 29.7417C31.9856 29.7417 31.515 32.1533 31.515 34.6428V44.0861H25.5844V24.9972H31.2761V27.6039H31.3572C32.1494 26.1039 34.085 24.5211 36.9717 24.5211C42.975 24.5211 44.0839 28.4733 44.0839 33.615V44.0856H44.0833Z" fill="white"/>
</svg>
