<svg width="60" height="60" viewBox="0 0 60 60" fill="none" xmlns="http://www.w3.org/2000/svg">
<rect x="9" y="9" width="42" height="42" rx="4" fill="white"/>
<mask id="path-2-inside-1_1326_1188" fill="white">
<path d="M43.0909 24.1812C43.8624 24.1812 44.6024 24.4877 45.1479 25.0333C45.6935 25.5788 46 26.3188 46 27.0903V32.9085C46 33.68 45.6935 34.42 45.1479 34.9655C44.6024 35.5111 43.8624 35.8176 43.0909 35.8176H41.5462C41.1916 38.6297 39.8229 41.2157 37.6971 43.0903C35.5712 44.965 32.8343 45.9994 30 45.9994V43.0903C32.3146 43.0903 34.5344 42.1708 36.1711 40.5342C37.8078 38.8975 38.7273 36.6777 38.7273 34.363V25.6358C38.7273 23.3212 37.8078 21.1013 36.1711 19.4647C34.5344 17.828 32.3146 16.9085 30 16.9085C27.6854 16.9085 25.4656 17.828 23.8289 19.4647C22.1922 21.1013 21.2727 23.3212 21.2727 25.6358V35.8176H16.9091C16.1376 35.8176 15.3976 35.5111 14.8521 34.9655C14.3065 34.42 14 33.68 14 32.9085V27.0903C14 26.3188 14.3065 25.5788 14.8521 25.0333C15.3976 24.4877 16.1376 24.1812 16.9091 24.1812H18.4538C18.8088 21.3694 20.1776 18.7838 22.3034 16.9095C24.4292 15.0352 27.1659 14.001 30 14.001C32.8341 14.001 35.5708 15.0352 37.6966 16.9095C39.8224 18.7838 41.1912 21.3694 41.5462 24.1812H43.0909ZM23.8327 35.5049L25.3745 33.038C26.7608 33.9064 28.3642 34.3657 30 34.363C31.6358 34.3657 33.2392 33.9064 34.6255 33.038L36.1673 35.5049C34.3189 36.6629 32.1812 37.2755 30 37.2721C27.8188 37.2755 25.6811 36.6629 23.8327 35.5049Z"/>
</mask>
<path d="M43.0909 24.1812C43.8624 24.1812 44.6024 24.4877 45.1479 25.0333C45.6935 25.5788 46 26.3188 46 27.0903V32.9085C46 33.68 45.6935 34.42 45.1479 34.9655C44.6024 35.5111 43.8624 35.8176 43.0909 35.8176H41.5462C41.1916 38.6297 39.8229 41.2157 37.6971 43.0903C35.5712 44.965 32.8343 45.9994 30 45.9994V43.0903C32.3146 43.0903 34.5344 42.1708 36.1711 40.5342C37.8078 38.8975 38.7273 36.6777 38.7273 34.363V25.6358C38.7273 23.3212 37.8078 21.1013 36.1711 19.4647C34.5344 17.828 32.3146 16.9085 30 16.9085C27.6854 16.9085 25.4656 17.828 23.8289 19.4647C22.1922 21.1013 21.2727 23.3212 21.2727 25.6358V35.8176H16.9091C16.1376 35.8176 15.3976 35.5111 14.8521 34.9655C14.3065 34.42 14 33.68 14 32.9085V27.0903C14 26.3188 14.3065 25.5788 14.8521 25.0333C15.3976 24.4877 16.1376 24.1812 16.9091 24.1812H18.4538C18.8088 21.3694 20.1776 18.7838 22.3034 16.9095C24.4292 15.0352 27.1659 14.001 30 14.001C32.8341 14.001 35.5708 15.0352 37.6966 16.9095C39.8224 18.7838 41.1912 21.3694 41.5462 24.1812H43.0909ZM23.8327 35.5049L25.3745 33.038C26.7608 33.9064 28.3642 34.3657 30 34.363C31.6358 34.3657 33.2392 33.9064 34.6255 33.038L36.1673 35.5049C34.3189 36.6629 32.1812 37.2755 30 37.2721C27.8188 37.2755 25.6811 36.6629 23.8327 35.5049Z" fill="#820000"/>
<path d="M41.5462 35.8176V25.8176H32.728L31.6248 34.5665L41.5462 35.8176ZM30 45.9994H20V55.9996L30.0002 55.9994L30 45.9994ZM30 43.0903V33.0903H20V43.0903H30ZM30 16.9085L30 6.9085L30 16.9085ZM21.2727 25.6358H11.2727H21.2727ZM21.2727 35.8176V45.8176H31.2727V35.8176H21.2727ZM14 32.9085H4H14ZM16.9091 24.1812V34.1812V24.1812ZM18.4538 24.1812V34.1812H27.2708L28.3751 25.4337L18.4538 24.1812ZM30 14.001L30 24.001L30 14.001ZM41.5462 24.1812L31.6249 25.4337L32.7292 34.1812H41.5462V24.1812ZM23.8327 35.5049L15.3527 30.2049L10.0586 38.6756L18.5235 43.979L23.8327 35.5049ZM25.3745 33.038L30.6832 24.5634L22.2 19.2493L16.8946 27.738L25.3745 33.038ZM30 34.363L30.0162 24.3631L30 24.363L29.9838 24.3631L30 34.363ZM34.6255 33.038L43.1054 27.738L37.8 19.2493L29.3168 24.5634L34.6255 33.038ZM36.1673 35.5049L41.4765 43.979L49.9415 38.6756L44.6473 30.2049L36.1673 35.5049ZM30 37.2721L30.0154 27.2721L30 27.2721L29.9846 27.2721L30 37.2721ZM43.0909 34.1812C41.2103 34.1812 39.4067 33.4341 38.0769 32.1044L52.219 17.9622C49.7981 15.5413 46.5146 14.1812 43.0909 14.1812V34.1812ZM38.0769 32.1044C36.7471 30.7746 36 28.971 36 27.0903H56C56 23.6666 54.6399 20.3831 52.219 17.9622L38.0769 32.1044ZM36 27.0903V32.9085H56V27.0903H36ZM36 32.9085C36 31.0279 36.7471 29.2243 38.0769 27.8945L52.219 42.0366C54.6399 39.6157 56 36.3322 56 32.9085H36ZM38.0769 27.8945C39.4067 26.5647 41.2103 25.8176 43.0909 25.8176V45.8176C46.5146 45.8176 49.7981 44.4575 52.219 42.0366L38.0769 27.8945ZM43.0909 25.8176H41.5462V45.8176H43.0909V25.8176ZM31.6248 34.5665C31.5748 34.9622 31.3822 35.3262 31.0831 35.59L44.3111 50.5906C48.2636 47.1052 50.8083 42.2971 51.4676 37.0687L31.6248 34.5665ZM31.0831 35.59C30.7839 35.8538 30.3987 35.9994 29.9998 35.9994L30.0002 55.9994C35.27 55.9993 40.3586 54.0761 44.3111 50.5906L31.0831 35.59ZM40 45.9994V43.0903H20V45.9994H40ZM30 53.0903C34.9668 53.0903 39.7301 51.1173 43.2422 47.6052L29.1 33.4631C29.3387 33.2244 29.6625 33.0903 30 33.0903V53.0903ZM43.2422 47.6052C46.7542 44.0932 48.7273 39.3298 48.7273 34.363H28.7273C28.7273 34.0255 28.8614 33.7018 29.1 33.4631L43.2422 47.6052ZM48.7273 34.363V25.6358H28.7273V34.363H48.7273ZM48.7273 25.6358C48.7273 20.669 46.7542 15.9056 43.2422 12.3936L29.1 26.5357C28.8614 26.297 28.7273 25.9733 28.7273 25.6358H48.7273ZM43.2422 12.3936C39.7301 8.88155 34.9668 6.9085 30 6.9085L30 26.9085C29.6625 26.9085 29.3387 26.7744 29.1 26.5357L43.2422 12.3936ZM30 6.9085C25.0332 6.9085 20.2699 8.88155 16.7578 12.3936L30.9 26.5357C30.6613 26.7744 30.3376 26.9085 30 26.9085L30 6.9085ZM16.7578 12.3936C13.2458 15.9056 11.2727 20.669 11.2727 25.6358L31.2727 25.6358C31.2727 25.9733 31.1386 26.297 30.9 26.5357L16.7578 12.3936ZM11.2727 25.6358V35.8176H31.2727V25.6358H11.2727ZM21.2727 25.8176H16.9091V45.8176H21.2727V25.8176ZM16.9091 25.8176C18.7897 25.8176 20.5933 26.5647 21.9231 27.8945L7.78099 42.0366C10.2019 44.4575 13.4854 45.8176 16.9091 45.8176V25.8176ZM21.9231 27.8945C23.2529 29.2243 24 31.0279 24 32.9085H4C4 36.3322 5.36006 39.6157 7.78099 42.0366L21.9231 27.8945ZM24 32.9085V27.0903H4V32.9085H24ZM24 27.0903C24 28.971 23.2529 30.7746 21.9231 32.1044L7.78099 17.9622C5.36006 20.3831 4 23.6666 4 27.0903H24ZM21.9231 32.1044C20.5933 33.4342 18.7897 34.1812 16.9091 34.1812L16.9091 14.1812C13.4854 14.1812 10.2019 15.5413 7.78099 17.9622L21.9231 32.1044ZM16.9091 34.1812H18.4538V14.1812H16.9091V34.1812ZM28.3751 25.4337C28.425 25.038 28.6177 24.6741 28.9168 24.4103L15.6899 9.40867C11.7375 12.8935 9.19251 17.7009 8.53256 22.9288L28.3751 25.4337ZM28.9168 24.4103C29.216 24.1465 29.6011 24.001 30 24.001L30 4.00098C24.7306 4.00098 19.6424 5.9238 15.6899 9.40867L28.9168 24.4103ZM30 24.001C30.3989 24.001 30.784 24.1465 31.0832 24.4103L44.3101 9.40867C40.3576 5.9238 35.2694 4.00098 30 4.00098L30 24.001ZM31.0832 24.4103C31.3823 24.6741 31.575 25.038 31.6249 25.4337L51.4674 22.9288C50.8075 17.7009 48.2625 12.8935 44.3101 9.40867L31.0832 24.4103ZM41.5462 34.1812H43.0909V14.1812H41.5462V34.1812ZM32.3127 40.8049L33.8545 38.3379L16.8946 27.738L15.3527 30.2049L32.3127 40.8049ZM20.0658 41.5125C23.048 43.3806 26.4971 44.3687 30.0162 44.363L29.9838 24.3631C30.2312 24.3627 30.4736 24.4321 30.6832 24.5634L20.0658 41.5125ZM29.9838 44.363C33.5029 44.3687 36.952 43.3806 39.9342 41.5125L29.3168 24.5634C29.5264 24.4321 29.7688 24.3627 30.0162 24.3631L29.9838 44.363ZM26.1455 38.3379L27.6873 40.8049L44.6473 30.2049L43.1054 27.738L26.1455 38.3379ZM30.858 27.0307C30.6055 27.1889 30.3134 27.2726 30.0154 27.2721L29.9846 47.2721C34.0489 47.2784 38.0324 46.1369 41.4765 43.979L30.858 27.0307ZM29.9846 27.2721C29.6866 27.2726 29.3945 27.1889 29.142 27.0307L18.5235 43.979C21.9676 46.1369 25.9511 47.2784 30.0154 47.2721L29.9846 27.2721Z" fill="#820000" mask="url(#path-2-inside-1_1326_1188)"/>
</svg>
